<?xml version="1.0" encoding="UTF-8" standalone="no"?>
<svg
   xmlns:dc="http://purl.org/dc/elements/1.1/"
   xmlns:cc="http://creativecommons.org/ns#"
   xmlns:rdf="http://www.w3.org/1999/02/22-rdf-syntax-ns#"
   xmlns:svg="http://www.w3.org/2000/svg"
   xmlns="http://www.w3.org/2000/svg"
   xmlns:sodipodi="http://sodipodi.sourceforge.net/DTD/sodipodi-0.dtd"
   xmlns:inkscape="http://www.inkscape.org/namespaces/inkscape"
   inkscape:export-ydpi="192"
   inkscape:export-xdpi="192"
   inkscape:export-filename="E:\src\GitHub\pbi-tools\icons\pbi-tools\pbi-tools-logo-full_256x256.png"
   inkscape:version="1.0 (4035a4fb49, 2020-05-01)"
   sodipodi:docname="pbi-tools-logo-full.svg"
   id="svg46"
   version="1.1"
   viewBox="0 0 128 128">
  <metadata
     id="metadata52">
    <rdf:RDF>
      <cc:Work
         rdf:about="">
        <dc:format>image/svg+xml</dc:format>
        <dc:type
           rdf:resource="http://purl.org/dc/dcmitype/StillImage" />
        <dc:title>pbi-tools logo</dc:title>
      </cc:Work>
    </rdf:RDF>
  </metadata>
  <defs
     id="defs50" />
  <sodipodi:namedview
     inkscape:current-layer="svg46"
     inkscape:window-maximized="1"
     inkscape:window-y="7"
     inkscape:window-x="2869"
     inkscape:cy="64"
     inkscape:cx="48"
     inkscape:zoom="9.875"
     showgrid="false"
     id="namedview48"
     inkscape:window-height="1526"
     inkscape:window-width="2880"
     inkscape:pageshadow="2"
     inkscape:pageopacity="0"
     guidetolerance="10"
     gridtolerance="10"
     objecttolerance="10"
     borderopacity="1"
     bordercolor="#666666"
     pagecolor="#ffffff" />
  <title
     id="title32">pbi-tools logo</title>
  <g
     transform="matrix(1.1102672,0,0,1.1625472,-7.7741241,-12.717575)"
     id="g44"
     style="font-size:81.1548px;fill:white;stroke-width:0.67629">
    <path
       id="path34"
       d="m 47.305737,48.730056 c -3.435534,0 -6.14432,2.838301 -6.14432,6.091964 v 20.352701 c 0,3.115209 2.24631,5.538149 5.1533,6.091964 V 79.189879 C 44.663019,78.843745 43.209524,77.1823 43.209524,75.174721 V 54.82202 c 0,-2.284487 1.783834,-4.084385 4.096213,-4.084385 h 34.619611 c 2.31238,0 4.09621,1.799898 4.09621,4.084385 v 20.352701 c 0,2.007579 -1.45349,3.669024 -3.10519,4.015158 v 2.076806 c 2.90699,-0.553815 5.1533,-2.976755 5.1533,-6.091964 V 54.82202 c 0,-3.253663 -2.70879,-6.091964 -6.14432,-6.091964 z m 29.796651,8.16877 c -1.4535,0 -2.64272,1.10763 -2.64272,2.561395 v 24.506312 c 0,1.246084 1.18922,2.492164 2.64272,2.492164 1.45349,0 2.57665,-1.24608 2.57665,-2.492164 V 59.460221 c 0,-1.453765 -1.12316,-2.561395 -2.57665,-2.561395 z M 60.45326,62.990791 c -1.387427,0 -2.57665,1.10763 -2.57665,2.561394 v 18.414348 c 0,1.246084 1.189223,2.492164 2.57665,2.492164 1.519563,0 2.708787,-1.24608 2.708787,-2.492164 V 65.552185 c 0,-1.453764 -1.189224,-2.561394 -2.708787,-2.561394 z m 8.324563,4.084386 c -1.519563,0 -2.708786,1.10763 -2.708786,2.561394 v 14.329962 c 0,1.246084 1.189223,2.492164 2.708786,2.492164 1.387427,0 2.576655,-1.24608 2.576655,-2.492164 V 69.636571 c 0,-1.453764 -1.189228,-2.561394 -2.576655,-2.561394 z m -16.649125,5.122788 c -1.453495,0 -2.576651,1.176857 -2.576651,2.422941 v 9.345627 c 0,1.246084 1.123156,2.492164 2.576651,2.492164 1.453495,0 2.642718,-1.24608 2.642718,-2.492164 v -9.345627 c 0,-1.246084 -1.189223,-2.422941 -2.642718,-2.422941 z" />
    <g
       id="g38"
       aria-label="{"
       transform="scale(0.97691795,1.0236274)">
      <path
         id="path36"
         d="m 44.416254,103.00493 h -5.943955 q -7.093119,0 -11.531273,-3.962641 Q 22.5425,95.119279 22.5425,87.669522 v -5.904329 q 0,-6.696856 -3.288989,-10.461361 Q 15.964523,67.499701 9.1884138,67.499701 H 7.167469 v -6.181714 h 2.0209448 q 6.7761092,0 10.0650972,-3.764505 Q 22.5425,53.749351 22.5425,47.052495 v -5.904329 q 0,-7.449757 4.398526,-11.372767 4.438154,-3.962637 11.531273,-3.962637 h 5.943955 v 5.468439 h -4.517406 q -5.389185,0 -7.84602,2.496461 -2.417209,2.496461 -2.417209,8.044153 v 6.934614 q 0,5.508065 -3.05123,9.27257 -3.05123,3.724878 -8.480043,5.904329 v 0.951032 q 5.428813,2.179451 8.480043,5.943955 3.05123,3.724879 3.05123,9.232944 v 6.934614 q 0,5.547692 2.417209,8.044153 2.456835,2.496461 7.84602,2.496461 h 4.517406 z" />
    </g>
    <g
       id="g42"
       aria-label="}"
       transform="scale(0.97691795,1.0236274)">
      <path
         id="path40"
         d="m 125.17898,67.617476 h -2.02094 q -6.77611,0 -10.0651,3.804131 -3.28899,3.764505 -3.28899,10.461361 v 5.904329 q 0,7.449757 -4.43815,11.372767 -4.39853,3.962636 -11.491649,3.962636 h -5.943955 v -5.468438 h 4.517406 q 5.389186,0 7.806398,-2.496461 2.45683,-2.496461 2.45683,-8.044153 v -6.934614 q 0,-5.508065 3.05123,-9.232944 3.05123,-3.764504 8.48004,-5.943955 v -0.951032 q -5.42881,-2.179451 -8.48004,-5.904329 -3.05123,-3.764505 -3.05123,-9.27257 V 41.93959 q 0,-5.547692 -2.45683,-8.044153 -2.417212,-2.496461 -7.806398,-2.496461 h -4.517406 v -5.468439 h 5.943955 q 7.093119,0 11.491649,3.962637 4.43815,3.92301 4.43815,11.372767 v 5.904329 q 0,6.696856 3.28899,10.500987 3.28899,3.764505 10.0651,3.764505 h 2.02094 z" />
    </g>
  </g>
</svg>
